<?xml version="1.0" encoding="utf-8"?>
<!-- Generator: Adobe Illustrator 17.0.0, SVG Export Plug-In . SVG Version: 6.00 Build 0)  -->
<!DOCTYPE svg PUBLIC "-//W3C//DTD SVG 1.1//EN" "http://www.w3.org/Graphics/SVG/1.1/DTD/svg11.dtd">
<svg version="1.1" id="Layer_1" xmlns="http://www.w3.org/2000/svg" xmlns:xlink="http://www.w3.org/1999/xlink" x="0px" y="0px"
	 width="120px" height="50px" viewBox="0 0 120 50" enable-background="new 0 0 120 50" xml:space="preserve">
<g>
	<g>
		<path d="M41.877,8.663V6.23h1.957v2.432h0.965v1.817h-0.965v5.004h-1.957V10.48h-0.95V8.663H41.877z"/>
		<path d="M46.17,15.484V5h1.957v4.124c0,0.112-0.014,0.294-0.042,0.475c0.447-0.643,1.132-1.104,2.069-1.104
			c1.412,0,2.474,1.104,2.474,2.935v4.054h-1.971v-3.942c0-0.95-0.602-1.44-1.258-1.44c-0.601,0-1.188,0.476-1.272,1.454v3.928
			H46.17z"/>
		<path d="M55.973,12.492c0.14,1.132,0.839,1.551,1.608,1.551c0.755,0,1.272-0.349,1.608-0.839l1.3,0.937
			c-0.727,0.978-1.468,1.482-3.019,1.482c-1.999,0-3.467-1.468-3.467-3.565c0-1.943,1.314-3.55,3.41-3.55
			c2.306,0,3.215,1.65,3.215,3.746v0.238H55.973z M56.03,11.29h2.697c-0.126-0.782-0.727-1.188-1.328-1.188
			C56.77,10.102,56.225,10.493,56.03,11.29z"/>
	</g>
	<g>
		<path d="M3.972,28.535l1.608-1.146c0.392,0.768,1.006,1.173,1.719,1.173c0.643,0,1.09-0.432,1.09-1.033
			c0-1.455-3.774-2.013-3.774-4.655c0-1.482,1.258-2.516,2.642-2.516c1.105,0,1.916,0.503,2.432,1.3l-1.342,1.188
			c-0.252-0.377-0.601-0.67-1.006-0.67s-0.713,0.294-0.713,0.712c0,1.23,3.76,1.86,3.76,4.613c0,1.678-1.286,2.908-3.103,2.908
			C5.901,30.409,4.629,29.835,3.972,28.535z"/>
		<path d="M23.14,30.282h-2.139l-0.615-5.521c-0.098-0.769-0.112-1.524-0.112-1.607c-0.028,0.139-0.167,0.852-0.349,1.551
			l-1.803,5.577h-1.733l-1.817-5.563c-0.196-0.685-0.336-1.398-0.364-1.565c0,0.083-0.014,0.852-0.084,1.607l-0.615,5.521H11.37
			l1.356-9.785h2.46l1.859,5.885c0.098,0.377,0.182,0.866,0.196,0.95c0.014-0.071,0.084-0.56,0.196-0.937l1.887-5.899h2.46
			L23.14,30.282z"/>
		<path d="M29.73,27.962h-2.935l-0.685,2.321h-2.124l3.159-9.785h2.222l3.159,9.785h-2.124L29.73,27.962z M27.256,26.397h2.013
			l-0.294-1.048c-0.265-0.965-0.601-2.111-0.712-2.74c-0.126,0.768-0.419,1.789-0.699,2.74L27.256,26.397z"/>
		<path d="M33.789,30.282v-9.785h3.564c1.929,0,3.16,1.244,3.16,3.215c0,1.258-0.504,2.194-1.356,2.726l1.677,3.844h-2.18
			l-1.37-3.369h-1.51v3.369H33.789z M38.597,23.713c0-0.895-0.573-1.398-1.551-1.398h-1.272v2.782h1.272
			C38.01,25.097,38.597,24.608,38.597,23.713z"/>
		<path d="M43.243,30.282v-7.94h-1.873v-1.845h5.759v1.845h-1.873v7.94H43.243z"/>
		<path d="M48.53,30.282v-9.785h3.564c1.929,0,3.16,1.244,3.16,3.215c0,1.97-1.23,3.201-3.16,3.201h-1.579v3.369H48.53z
			 M53.338,23.713c0-0.895-0.574-1.398-1.552-1.398h-1.272v2.782h1.272C52.751,25.097,53.338,24.608,53.338,23.713z"/>
		<path d="M62.051,30.282v-4.557h-2.963v4.557h-2.013v-9.785h2.013v3.383h2.963v-3.383h2.013v9.785H62.051z"/>
		<path d="M65.747,25.391c0-2.754,2.25-5.018,5.032-5.018c2.754,0,5.018,2.264,5.018,5.018c0,2.782-2.264,5.032-5.018,5.032
			C67.997,30.422,65.747,28.172,65.747,25.391z M73.728,25.391c0-1.846-1.258-3.146-2.95-3.146c-1.706,0-2.963,1.315-2.963,3.146
			c0,1.859,1.258,3.158,2.963,3.158C72.47,28.549,73.728,27.236,73.728,25.391z"/>
		<path d="M84.385,30.282h-1.887v-2.139l-2.768-3.803c-0.223-0.307-0.447-0.726-0.447-0.726s0.042,0.475,0.042,0.852v5.815H77.48
			v-9.785h1.831l2.837,4.068c0.167,0.265,0.336,0.572,0.378,0.643c0-0.042-0.028-0.434-0.028-0.755v-3.956h1.887V30.282z"/>
		<path d="M86.626,30.282v-9.785h5.955v1.776h-3.97v1.956h2.782v1.762h-2.782v2.515h3.97v1.776H86.626z"/>
	</g>
	<g>
		<path d="M40.104,39.968c0-2.754,2.251-5.018,5.033-5.018c2.753,0,5.017,2.264,5.017,5.018c0,2.782-2.264,5.032-5.017,5.032
			C42.355,45,40.104,42.749,40.104,39.968z M48.086,39.968c0-1.845-1.258-3.145-2.949-3.145c-1.706,0-2.964,1.313-2.964,3.145
			c0,1.859,1.258,3.159,2.964,3.159C46.828,43.127,48.086,41.813,48.086,39.968z"/>
		<path d="M51.838,44.86v-9.785h3.564c1.929,0,3.16,1.244,3.16,3.215c0,1.258-0.503,2.194-1.356,2.725l1.677,3.844h-2.181
			l-1.369-3.369h-1.51v3.369H51.838z M56.646,38.291c0-0.895-0.572-1.398-1.551-1.398h-1.272v2.782h1.272
			C56.059,39.674,56.646,39.185,56.646,38.291z"/>
		<path d="M64.842,45c-2.795,0-4.976-2.251-4.976-5.032c0-2.754,2.209-5.018,4.976-5.018c1.566,0,2.796,0.629,3.747,1.733
			l-1.482,1.286c-0.615-0.643-1.37-1.105-2.279-1.105c-1.663,0-2.949,1.356-2.949,3.103c0,1.776,1.286,3.117,2.949,3.117
			c0.923,0,1.691-0.476,2.321-1.16l1.538,1.23C67.75,44.273,66.519,45,64.842,45z"/>
		<path d="M75.346,44.86v-4.557h-2.964v4.557H70.37v-9.785h2.012v3.383h2.964v-3.383h2.012v9.785H75.346z"/>
		<path d="M79.6,44.86v-9.785h5.954v1.776h-3.97v1.956h2.782v1.761h-2.782v2.516h3.97v1.775H79.6z"/>
		<path d="M86.677,43.113l1.607-1.146c0.392,0.768,1.006,1.174,1.72,1.174c0.643,0,1.089-0.434,1.089-1.035
			c0-1.453-3.773-2.013-3.773-4.654c0-1.482,1.258-2.516,2.642-2.516c1.104,0,1.914,0.503,2.432,1.3l-1.342,1.188
			c-0.252-0.377-0.601-0.671-1.007-0.671c-0.405,0-0.712,0.294-0.712,0.712c0,1.23,3.76,1.859,3.76,4.613
			c0,1.678-1.286,2.907-3.104,2.907C88.605,44.986,87.334,44.413,86.677,43.113z"/>
		<path d="M95.094,44.86v-7.94h-1.872v-1.845h5.759v1.845h-1.873v7.94H95.094z"/>
		<path d="M100.381,44.86v-9.785h3.565c1.929,0,3.16,1.244,3.16,3.215c0,1.258-0.503,2.194-1.357,2.725l1.678,3.844h-2.181
			l-1.369-3.369h-1.51v3.369H100.381z M105.189,38.291c0-0.895-0.572-1.398-1.551-1.398h-1.272v2.782h1.272
			C104.602,39.674,105.189,39.185,105.189,38.291z"/>
		<path d="M113.232,42.54h-2.935l-0.684,2.32h-2.125l3.158-9.785h2.223l3.16,9.785h-2.125L113.232,42.54z M110.758,40.974h2.012
			l-0.294-1.049c-0.265-0.964-0.601-2.111-0.712-2.74c-0.126,0.769-0.42,1.789-0.699,2.74L110.758,40.974z"/>
	</g>
</g>
</svg>
